<?xml version="1.0" standalone="no"?>
<!DOCTYPE svg PUBLIC "-//W3C//DTD SVG 20010904//EN"
 "http://www.w3.org/TR/2001/REC-SVG-20010904/DTD/svg10.dtd">
<svg version="1.0" xmlns="http://www.w3.org/2000/svg"
 width="1080.000000pt" height="1080.000000pt" viewBox="0 0 1080.000000 1080.000000"
 preserveAspectRatio="xMidYMid meet">
<metadata>
Created by potrace 1.14, written by Peter Selinger 2001-2017
</metadata>
<g transform="translate(0.000000,1080.000000) scale(0.100000,-0.100000)"
fill="#000000" stroke="none">
<path d="M5118 10795 c-2 -1 -43 -5 -93 -9 -164 -11 -216 -16 -405 -42 -63 -9
-117 -17 -120 -19 -3 -1 -25 -6 -50 -9 -102 -14 -465 -97 -550 -126 -22 -7
-257 -82 -270 -85 -3 -1 -12 -4 -20 -8 -8 -3 -71 -27 -140 -53 -69 -26 -150
-58 -180 -71 -30 -13 -64 -28 -75 -33 -11 -4 -94 -44 -185 -88 -256 -124 -496
-268 -804 -482 -86 -60 -326 -253 -410 -330 -21 -19 -50 -46 -65 -59 -104 -94
-320 -315 -416 -426 -33 -38 -67 -76 -75 -85 -21 -23 -47 -54 -110 -135 -30
-38 -61 -77 -67 -85 -31 -37 -146 -197 -165 -229 -12 -20 -26 -37 -30 -39 -4
-2 -8 -10 -8 -18 0 -8 -4 -14 -10 -14 -5 0 -10 -7 -10 -15 0 -8 -4 -15 -10
-15 -5 0 -10 -7 -10 -15 0 -8 -4 -15 -10 -15 -5 0 -10 -4 -10 -10 0 -5 -20
-40 -44 -77 -132 -205 -307 -556 -419 -838 -50 -125 -144 -396 -152 -435 -2
-8 -16 -62 -33 -120 -26 -93 -47 -173 -57 -220 -2 -8 -11 -46 -20 -85 -9 -38
-18 -86 -21 -105 -7 -44 -11 -69 -25 -145 -44 -239 -48 -314 -47 -880 0 -402
4 -577 14 -650 27 -202 30 -222 50 -325 32 -167 47 -240 54 -265 5 -16 23 -84
40 -150 18 -66 41 -151 53 -190 12 -38 22 -72 22 -75 1 -3 4 -12 7 -20 27 -71
42 -117 44 -125 2 -12 60 -167 79 -210 7 -16 39 -91 71 -165 73 -169 185 -389
278 -545 39 -66 73 -124 75 -130 9 -21 194 -292 263 -383 301 -401 689 -789
1093 -1092 579 -434 1262 -753 1980 -925 156 -38 155 -37 315 -66 110 -19 142
-25 220 -35 19 -2 60 -8 90 -12 135 -18 1278 -7 1350 13 8 3 33 7 55 9 156 20
497 92 675 143 151 43 400 125 465 153 11 5 83 34 160 66 486 198 969 492
1400 854 168 141 416 382 555 539 36 41 70 79 76 85 8 9 150 184 207 256 7 8
45 60 85 115 39 55 75 105 80 110 25 34 169 263 206 328 13 23 43 76 66 117
125 218 294 604 388 885 45 133 116 384 129 449 2 11 10 45 18 75 8 31 16 67
19 81 2 14 13 75 24 135 19 103 24 130 38 230 3 22 7 51 9 65 2 14 7 57 10 95
4 39 9 84 11 100 24 201 23 756 -1 985 -3 25 -7 65 -10 90 -14 127 -58 416
-70 460 -2 8 -7 29 -10 45 -8 50 -23 115 -60 265 -24 96 -110 379 -130 425 -7
17 -18 48 -25 70 -65 207 -272 642 -434 910 -243 405 -489 719 -826 1055 -217
217 -463 428 -660 565 -216 151 -397 265 -560 353 -36 19 -85 46 -110 59 -139
77 -465 218 -685 296 -106 38 -316 105 -350 111 -11 2 -54 14 -96 25 -89 25
-172 44 -319 71 -142 27 -161 31 -191 35 -14 2 -59 8 -100 14 -105 15 -187 24
-329 37 -54 6 -687 14 -692 9z"/>
</g>
</svg>
